<mxfile host="app.diagrams.net" modified="2023-12-17T05:16:35.262Z" agent="Mozilla/5.0 (Windows NT 10.0; Win64; x64) AppleWebKit/537.36 (KHTML, like Gecko) Chrome/120.0.0.0 Safari/537.36" etag="Navivxgh_3YCl5Nu2Tjr" version="22.1.11" type="github">
  <diagram name="Page-1" id="pmZjG4wVhYeh3A2O9KnD">
    <mxGraphModel dx="504" dy="259" grid="1" gridSize="10" guides="1" tooltips="1" connect="1" arrows="1" fold="1" page="1" pageScale="1" pageWidth="850" pageHeight="1100" math="0" shadow="0">
      <root>
        <mxCell id="0" />
        <mxCell id="1" parent="0" />
        <mxCell id="XKppD3HnySolMZIYMSIO-2" value="" style="edgeStyle=orthogonalEdgeStyle;rounded=0;orthogonalLoop=1;jettySize=auto;html=1;fontSize=10;" edge="1" parent="1" source="XKppD3HnySolMZIYMSIO-3" target="XKppD3HnySolMZIYMSIO-4">
          <mxGeometry relative="1" as="geometry" />
        </mxCell>
        <mxCell id="XKppD3HnySolMZIYMSIO-3" value="&lt;font face=&quot;Verdana&quot; style=&quot;font-size: 10px;&quot;&gt;QUADRANTS&lt;/font&gt;" style="rounded=0;whiteSpace=wrap;html=1;fontSize=10;" vertex="1" parent="1">
          <mxGeometry x="360" y="140" width="120" height="30" as="geometry" />
        </mxCell>
        <mxCell id="XKppD3HnySolMZIYMSIO-4" value="Input&amp;nbsp; Angle" style="rounded=0;whiteSpace=wrap;html=1;fontSize=10;" vertex="1" parent="1">
          <mxGeometry x="50" y="330" width="120" height="60" as="geometry" />
        </mxCell>
        <mxCell id="XKppD3HnySolMZIYMSIO-5" value="Determine Angle" style="shape=process;whiteSpace=wrap;html=1;backgroundOutline=1;fontSize=10;" vertex="1" parent="1">
          <mxGeometry x="280" y="330" width="120" height="60" as="geometry" />
        </mxCell>
        <mxCell id="XKppD3HnySolMZIYMSIO-6" value="" style="edgeStyle=orthogonalEdgeStyle;rounded=0;orthogonalLoop=1;jettySize=auto;html=1;fontSize=10;" edge="1" parent="1" source="XKppD3HnySolMZIYMSIO-8" target="XKppD3HnySolMZIYMSIO-15">
          <mxGeometry relative="1" as="geometry" />
        </mxCell>
        <mxCell id="XKppD3HnySolMZIYMSIO-7" value="" style="edgeStyle=orthogonalEdgeStyle;rounded=0;orthogonalLoop=1;jettySize=auto;html=1;fontSize=10;" edge="1" parent="1" source="XKppD3HnySolMZIYMSIO-8" target="XKppD3HnySolMZIYMSIO-12">
          <mxGeometry relative="1" as="geometry" />
        </mxCell>
        <mxCell id="XKppD3HnySolMZIYMSIO-8" value="" style="rhombus;whiteSpace=wrap;html=1;fontSize=10;" vertex="1" parent="1">
          <mxGeometry x="202.5" y="400" width="35" height="30" as="geometry" />
        </mxCell>
        <mxCell id="XKppD3HnySolMZIYMSIO-9" value="" style="endArrow=none;html=1;rounded=0;exitX=0.5;exitY=0;exitDx=0;exitDy=0;fontSize=10;" edge="1" parent="1" source="XKppD3HnySolMZIYMSIO-8">
          <mxGeometry width="50" height="50" relative="1" as="geometry">
            <mxPoint x="340" y="290" as="sourcePoint" />
            <mxPoint x="340" y="400" as="targetPoint" />
          </mxGeometry>
        </mxCell>
        <mxCell id="XKppD3HnySolMZIYMSIO-10" value="&lt;span style=&quot;color: rgb(0, 0, 0); font-family: Helvetica; font-size: 10px; font-style: normal; font-variant-ligatures: normal; font-variant-caps: normal; font-weight: 400; letter-spacing: normal; orphans: 2; text-align: center; text-indent: 0px; text-transform: none; widows: 2; word-spacing: 0px; -webkit-text-stroke-width: 0px; background-color: rgb(251, 251, 251); text-decoration-thickness: initial; text-decoration-style: initial; text-decoration-color: initial; float: none; display: inline !important;&quot;&gt;If Angle is exactly at 0 degrees.&lt;/span&gt;" style="rounded=0;whiteSpace=wrap;html=1;fontSize=10;" vertex="1" parent="1">
          <mxGeometry x="50" y="610" width="130" height="60" as="geometry" />
        </mxCell>
        <mxCell id="XKppD3HnySolMZIYMSIO-11" value="If angle is negative" style="rounded=0;whiteSpace=wrap;html=1;fontSize=10;" vertex="1" parent="1">
          <mxGeometry x="250" y="610" width="140" height="60" as="geometry" />
        </mxCell>
        <mxCell id="XKppD3HnySolMZIYMSIO-12" value="&lt;font style=&quot;font-size: 10px;&quot;&gt;If Angle is greater than 90 degrees but is less than 180 degrees.&lt;/font&gt;" style="rounded=0;whiteSpace=wrap;html=1;fontSize=10;" vertex="1" parent="1">
          <mxGeometry x="250" y="440" width="140" height="60" as="geometry" />
        </mxCell>
        <mxCell id="XKppD3HnySolMZIYMSIO-13" value="&lt;span style=&quot;color: rgb(0, 0, 0); font-family: Helvetica; font-size: 10px; font-style: normal; font-variant-ligatures: normal; font-variant-caps: normal; font-weight: 400; letter-spacing: normal; orphans: 2; text-align: center; text-indent: 0px; text-transform: none; widows: 2; word-spacing: 0px; -webkit-text-stroke-width: 0px; background-color: rgb(251, 251, 251); text-decoration-thickness: initial; text-decoration-style: initial; text-decoration-color: initial; float: none; display: inline !important;&quot;&gt;If Angle is greater than 270 degrees but is less than 360 degrees.&lt;/span&gt;" style="rounded=0;whiteSpace=wrap;html=1;fontSize=10;" vertex="1" parent="1">
          <mxGeometry x="250" y="520" width="140" height="60" as="geometry" />
        </mxCell>
        <mxCell id="XKppD3HnySolMZIYMSIO-14" value="If Angle is greater than 180 degrees but is less than 270 degrees." style="rounded=0;whiteSpace=wrap;html=1;fontSize=10;" vertex="1" parent="1">
          <mxGeometry x="50" y="520" width="130" height="60" as="geometry" />
        </mxCell>
        <mxCell id="XKppD3HnySolMZIYMSIO-15" value="If Angle is greater than 0 degrees but is less than 90 degrees." style="rounded=0;whiteSpace=wrap;html=1;fontSize=10;" vertex="1" parent="1">
          <mxGeometry x="50" y="440" width="130" height="60" as="geometry" />
        </mxCell>
        <mxCell id="XKppD3HnySolMZIYMSIO-16" value="" style="endArrow=none;html=1;rounded=0;entryX=0.5;entryY=1;entryDx=0;entryDy=0;fontSize=10;" edge="1" parent="1">
          <mxGeometry width="50" height="50" relative="1" as="geometry">
            <mxPoint x="390" y="300" as="sourcePoint" />
            <mxPoint x="390" y="170" as="targetPoint" />
          </mxGeometry>
        </mxCell>
        <mxCell id="XKppD3HnySolMZIYMSIO-17" value="" style="endArrow=none;html=1;rounded=0;fontSize=10;" edge="1" parent="1">
          <mxGeometry width="50" height="50" relative="1" as="geometry">
            <mxPoint x="340" y="300" as="sourcePoint" />
            <mxPoint x="390" y="300" as="targetPoint" />
          </mxGeometry>
        </mxCell>
        <mxCell id="XKppD3HnySolMZIYMSIO-18" value="" style="endArrow=classic;html=1;rounded=0;entryX=0.5;entryY=0;entryDx=0;entryDy=0;fontSize=10;" edge="1" parent="1" target="XKppD3HnySolMZIYMSIO-5">
          <mxGeometry width="50" height="50" relative="1" as="geometry">
            <mxPoint x="340" y="300" as="sourcePoint" />
            <mxPoint x="470" y="220" as="targetPoint" />
          </mxGeometry>
        </mxCell>
        <mxCell id="XKppD3HnySolMZIYMSIO-19" value="" style="endArrow=classic;html=1;rounded=0;entryX=0.5;entryY=0;entryDx=0;entryDy=0;fontSize=10;" edge="1" parent="1" target="XKppD3HnySolMZIYMSIO-25">
          <mxGeometry width="50" height="50" relative="1" as="geometry">
            <mxPoint x="610" y="300" as="sourcePoint" />
            <mxPoint x="610" y="330" as="targetPoint" />
            <Array as="points">
              <mxPoint x="610" y="310" />
            </Array>
          </mxGeometry>
        </mxCell>
        <mxCell id="XKppD3HnySolMZIYMSIO-20" value="" style="endArrow=none;html=1;rounded=0;entryX=0.5;entryY=1;entryDx=0;entryDy=0;fontSize=10;" edge="1" parent="1" target="XKppD3HnySolMZIYMSIO-8">
          <mxGeometry width="50" height="50" relative="1" as="geometry">
            <mxPoint x="220" y="630" as="sourcePoint" />
            <mxPoint x="300" y="410" as="targetPoint" />
            <Array as="points">
              <mxPoint x="220" y="640" />
              <mxPoint x="220" y="630" />
            </Array>
          </mxGeometry>
        </mxCell>
        <mxCell id="XKppD3HnySolMZIYMSIO-21" value="" style="endArrow=classic;html=1;rounded=0;entryX=0;entryY=0.5;entryDx=0;entryDy=0;fontSize=10;" edge="1" parent="1" target="XKppD3HnySolMZIYMSIO-13">
          <mxGeometry width="50" height="50" relative="1" as="geometry">
            <mxPoint x="220" y="550" as="sourcePoint" />
            <mxPoint x="300" y="470" as="targetPoint" />
          </mxGeometry>
        </mxCell>
        <mxCell id="XKppD3HnySolMZIYMSIO-22" value="" style="endArrow=classic;html=1;rounded=0;entryX=1;entryY=0.5;entryDx=0;entryDy=0;fontSize=10;" edge="1" parent="1" target="XKppD3HnySolMZIYMSIO-14" source="qkKeoDyeiW4mvvNIhgha-11">
          <mxGeometry width="50" height="50" relative="1" as="geometry">
            <mxPoint x="220" y="550" as="sourcePoint" />
            <mxPoint x="260" y="560" as="targetPoint" />
          </mxGeometry>
        </mxCell>
        <mxCell id="XKppD3HnySolMZIYMSIO-23" value="" style="endArrow=classic;html=1;rounded=0;entryX=0;entryY=0.5;entryDx=0;entryDy=0;fontSize=10;" edge="1" parent="1" target="XKppD3HnySolMZIYMSIO-11">
          <mxGeometry width="50" height="50" relative="1" as="geometry">
            <mxPoint x="220" y="640" as="sourcePoint" />
            <mxPoint x="270" y="580" as="targetPoint" />
            <Array as="points" />
          </mxGeometry>
        </mxCell>
        <mxCell id="XKppD3HnySolMZIYMSIO-24" value="" style="endArrow=classic;html=1;rounded=0;entryX=1;entryY=0.5;entryDx=0;entryDy=0;fontSize=10;" edge="1" parent="1" target="XKppD3HnySolMZIYMSIO-10">
          <mxGeometry width="50" height="50" relative="1" as="geometry">
            <mxPoint x="220" y="640" as="sourcePoint" />
            <mxPoint x="280" y="590" as="targetPoint" />
          </mxGeometry>
        </mxCell>
        <mxCell id="XKppD3HnySolMZIYMSIO-25" value="Print Quadrant" style="shape=process;whiteSpace=wrap;html=1;backgroundOutline=1;fontSize=10;" vertex="1" parent="1">
          <mxGeometry x="550" y="330" width="120" height="60" as="geometry" />
        </mxCell>
        <mxCell id="XKppD3HnySolMZIYMSIO-26" value="" style="edgeStyle=orthogonalEdgeStyle;rounded=0;orthogonalLoop=1;jettySize=auto;html=1;fontSize=10;exitX=0.078;exitY=0.511;exitDx=0;exitDy=0;exitPerimeter=0;" edge="1" parent="1" source="qkKeoDyeiW4mvvNIhgha-10" target="XKppD3HnySolMZIYMSIO-34">
          <mxGeometry relative="1" as="geometry">
            <mxPoint x="592.5" y="425" as="sourcePoint" />
          </mxGeometry>
        </mxCell>
        <mxCell id="XKppD3HnySolMZIYMSIO-27" value="" style="edgeStyle=orthogonalEdgeStyle;rounded=0;orthogonalLoop=1;jettySize=auto;html=1;fontSize=10;" edge="1" parent="1" source="qkKeoDyeiW4mvvNIhgha-10" target="XKppD3HnySolMZIYMSIO-31">
          <mxGeometry relative="1" as="geometry">
            <mxPoint x="627.5" y="425" as="sourcePoint" />
          </mxGeometry>
        </mxCell>
        <mxCell id="XKppD3HnySolMZIYMSIO-29" value="If the angle is exactly at 0 degrees, display &quot;The angle is on the X-axis.&quot;" style="rounded=0;whiteSpace=wrap;html=1;fontSize=10;" vertex="1" parent="1">
          <mxGeometry x="410" y="620" width="160" height="80" as="geometry" />
        </mxCell>
        <mxCell id="XKppD3HnySolMZIYMSIO-30" value="If angle is negative, display &quot;Please enter a positive number.&quot;" style="rounded=0;whiteSpace=wrap;html=1;fontSize=10;" vertex="1" parent="1">
          <mxGeometry x="640" y="620" width="162.5" height="80" as="geometry" />
        </mxCell>
        <mxCell id="XKppD3HnySolMZIYMSIO-31" value="If the angle is greater than 90 degrees but less than 180 degrees and if it is exactly in 180 degrees, display &quot;Angle is in Quadrant 2 and is in the Negative X- Axis.&quot;" style="rounded=0;whiteSpace=wrap;html=1;fontSize=10;" vertex="1" parent="1">
          <mxGeometry x="640" y="450" width="160" height="70" as="geometry" />
        </mxCell>
        <mxCell id="XKppD3HnySolMZIYMSIO-32" value="If the angle is greater than 90 degrees but less than 180 degrees and if it is exactly in 180 degrees, display &quot;Angle is in Quadrant 4 and is in the Positive X-axis" style="rounded=0;whiteSpace=wrap;html=1;fontSize=10;" vertex="1" parent="1">
          <mxGeometry x="640" y="530" width="160" height="80" as="geometry" />
        </mxCell>
        <mxCell id="XKppD3HnySolMZIYMSIO-33" value="If the angle is greater than 180 degrees but less than 270 degrees, and if it is exactly 270 degrees, display &quot;Angle is in Quadrant 3 and is in the Negative Y-Axis.&quot;" style="rounded=0;whiteSpace=wrap;html=1;fontSize=10;" vertex="1" parent="1">
          <mxGeometry x="410" y="530" width="160" height="80" as="geometry" />
        </mxCell>
        <mxCell id="XKppD3HnySolMZIYMSIO-34" value="If the angle is greater than 0 degrees but less than 90 degrees, and if it is exactly 90 degrees, display &quot;Angle is in Quadrant 1 and is in the Positive Y-Axis.&quot;" style="rounded=0;whiteSpace=wrap;html=1;fontSize=10;" vertex="1" parent="1">
          <mxGeometry x="410" y="450" width="160" height="70" as="geometry" />
        </mxCell>
        <mxCell id="XKppD3HnySolMZIYMSIO-35" value="" style="endArrow=none;html=1;rounded=0;entryX=0.5;entryY=1;entryDx=0;entryDy=0;fontSize=10;" edge="1" parent="1">
          <mxGeometry width="50" height="50" relative="1" as="geometry">
            <mxPoint x="610" y="560" as="sourcePoint" />
            <mxPoint x="610" y="440" as="targetPoint" />
          </mxGeometry>
        </mxCell>
        <mxCell id="XKppD3HnySolMZIYMSIO-36" value="" style="endArrow=classic;html=1;rounded=0;entryX=0;entryY=0.5;entryDx=0;entryDy=0;fontSize=10;" edge="1" parent="1" target="XKppD3HnySolMZIYMSIO-32">
          <mxGeometry width="50" height="50" relative="1" as="geometry">
            <mxPoint x="620" y="570" as="sourcePoint" />
            <mxPoint x="690" y="480" as="targetPoint" />
          </mxGeometry>
        </mxCell>
        <mxCell id="XKppD3HnySolMZIYMSIO-37" value="" style="endArrow=classic;html=1;rounded=0;entryX=1;entryY=0.5;entryDx=0;entryDy=0;fontSize=10;" edge="1" parent="1" target="XKppD3HnySolMZIYMSIO-33">
          <mxGeometry width="50" height="50" relative="1" as="geometry">
            <mxPoint x="600" y="570" as="sourcePoint" />
            <mxPoint x="650" y="570" as="targetPoint" />
          </mxGeometry>
        </mxCell>
        <mxCell id="XKppD3HnySolMZIYMSIO-38" value="" style="endArrow=classic;html=1;rounded=0;entryX=0;entryY=0.5;entryDx=0;entryDy=0;fontSize=10;" edge="1" parent="1" target="XKppD3HnySolMZIYMSIO-30">
          <mxGeometry width="50" height="50" relative="1" as="geometry">
            <mxPoint x="620" y="660" as="sourcePoint" />
            <mxPoint x="670" y="590" as="targetPoint" />
            <Array as="points" />
          </mxGeometry>
        </mxCell>
        <mxCell id="XKppD3HnySolMZIYMSIO-39" value="" style="endArrow=classic;html=1;rounded=0;entryX=1;entryY=0.5;entryDx=0;entryDy=0;fontSize=10;" edge="1" parent="1" target="XKppD3HnySolMZIYMSIO-29">
          <mxGeometry width="50" height="50" relative="1" as="geometry">
            <mxPoint x="600" y="660" as="sourcePoint" />
            <mxPoint x="680" y="600" as="targetPoint" />
          </mxGeometry>
        </mxCell>
        <mxCell id="XKppD3HnySolMZIYMSIO-40" value="" style="endArrow=none;html=1;rounded=0;entryX=0.5;entryY=1;entryDx=0;entryDy=0;exitX=0.5;exitY=0;exitDx=0;exitDy=0;fontSize=10;" edge="1" parent="1" target="XKppD3HnySolMZIYMSIO-25">
          <mxGeometry width="50" height="50" relative="1" as="geometry">
            <mxPoint x="610" y="410" as="sourcePoint" />
            <mxPoint x="470" y="340" as="targetPoint" />
          </mxGeometry>
        </mxCell>
        <mxCell id="XKppD3HnySolMZIYMSIO-41" value="" style="endArrow=none;html=1;rounded=0;entryX=0.75;entryY=1;entryDx=0;entryDy=0;fontSize=10;" edge="1" parent="1" target="XKppD3HnySolMZIYMSIO-3">
          <mxGeometry width="50" height="50" relative="1" as="geometry">
            <mxPoint x="450" y="300" as="sourcePoint" />
            <mxPoint x="400" y="180" as="targetPoint" />
          </mxGeometry>
        </mxCell>
        <mxCell id="XKppD3HnySolMZIYMSIO-42" value="" style="endArrow=none;html=1;rounded=0;fontSize=10;" edge="1" parent="1">
          <mxGeometry width="50" height="50" relative="1" as="geometry">
            <mxPoint x="610" y="300" as="sourcePoint" />
            <mxPoint x="450" y="300" as="targetPoint" />
          </mxGeometry>
        </mxCell>
        <mxCell id="XKppD3HnySolMZIYMSIO-46" value="" style="endArrow=none;html=1;rounded=0;fontSize=10;entryX=0.5;entryY=1;entryDx=0;entryDy=0;" edge="1" parent="1" target="XKppD3HnySolMZIYMSIO-5">
          <mxGeometry width="50" height="50" relative="1" as="geometry">
            <mxPoint x="340" y="400" as="sourcePoint" />
            <mxPoint x="350" y="410" as="targetPoint" />
          </mxGeometry>
        </mxCell>
        <mxCell id="qkKeoDyeiW4mvvNIhgha-1" value="If the angle is invalid, display &quot;Angle is invalid.&quot;" style="rounded=0;whiteSpace=wrap;html=1;fontSize=10;" vertex="1" parent="1">
          <mxGeometry x="528.75" y="720" width="162.5" height="80" as="geometry" />
        </mxCell>
        <mxCell id="qkKeoDyeiW4mvvNIhgha-2" value="" style="endArrow=classic;html=1;rounded=0;entryX=0.5;entryY=0;entryDx=0;entryDy=0;fontSize=10;exitX=0.5;exitY=1;exitDx=0;exitDy=0;" edge="1" parent="1" target="qkKeoDyeiW4mvvNIhgha-1">
          <mxGeometry width="50" height="50" relative="1" as="geometry">
            <mxPoint x="610" y="710" as="sourcePoint" />
            <mxPoint x="638" y="670" as="targetPoint" />
            <Array as="points" />
          </mxGeometry>
        </mxCell>
        <mxCell id="qkKeoDyeiW4mvvNIhgha-4" value="" style="ellipse;whiteSpace=wrap;html=1;aspect=fixed;" vertex="1" parent="1">
          <mxGeometry x="600" y="560" width="20" height="20" as="geometry" />
        </mxCell>
        <mxCell id="qkKeoDyeiW4mvvNIhgha-5" value="" style="ellipse;whiteSpace=wrap;html=1;aspect=fixed;" vertex="1" parent="1">
          <mxGeometry x="600" y="650" width="20" height="20" as="geometry" />
        </mxCell>
        <mxCell id="qkKeoDyeiW4mvvNIhgha-8" value="" style="endArrow=none;html=1;rounded=0;entryX=0.5;entryY=1;entryDx=0;entryDy=0;fontSize=10;exitX=0.5;exitY=0;exitDx=0;exitDy=0;" edge="1" parent="1" source="qkKeoDyeiW4mvvNIhgha-5" target="qkKeoDyeiW4mvvNIhgha-4">
          <mxGeometry width="50" height="50" relative="1" as="geometry">
            <mxPoint x="610" y="600" as="sourcePoint" />
            <mxPoint x="620" y="450" as="targetPoint" />
          </mxGeometry>
        </mxCell>
        <mxCell id="qkKeoDyeiW4mvvNIhgha-9" value="" style="endArrow=none;html=1;rounded=0;entryX=0.5;entryY=1;entryDx=0;entryDy=0;fontSize=10;" edge="1" parent="1" target="qkKeoDyeiW4mvvNIhgha-5">
          <mxGeometry width="50" height="50" relative="1" as="geometry">
            <mxPoint x="610" y="710" as="sourcePoint" />
            <mxPoint x="620" y="590" as="targetPoint" />
          </mxGeometry>
        </mxCell>
        <mxCell id="qkKeoDyeiW4mvvNIhgha-10" value="" style="ellipse;whiteSpace=wrap;html=1;aspect=fixed;" vertex="1" parent="1">
          <mxGeometry x="595" y="410" width="30" height="30" as="geometry" />
        </mxCell>
        <mxCell id="qkKeoDyeiW4mvvNIhgha-12" value="" style="rhombus;whiteSpace=wrap;html=1;fontSize=10;" vertex="1" parent="1">
          <mxGeometry x="206.25" y="627.5" width="27.5" height="25" as="geometry" />
        </mxCell>
        <mxCell id="qkKeoDyeiW4mvvNIhgha-13" value="" style="endArrow=classic;html=1;rounded=0;entryX=1;entryY=0.5;entryDx=0;entryDy=0;fontSize=10;" edge="1" parent="1" target="qkKeoDyeiW4mvvNIhgha-11">
          <mxGeometry width="50" height="50" relative="1" as="geometry">
            <mxPoint x="220" y="550" as="sourcePoint" />
            <mxPoint x="180" y="550" as="targetPoint" />
          </mxGeometry>
        </mxCell>
        <mxCell id="qkKeoDyeiW4mvvNIhgha-11" value="" style="rhombus;whiteSpace=wrap;html=1;fontSize=10;" vertex="1" parent="1">
          <mxGeometry x="206.25" y="538" width="27.5" height="25" as="geometry" />
        </mxCell>
      </root>
    </mxGraphModel>
  </diagram>
</mxfile>
